<?xml version="1.0" standalone="no"?>
<!DOCTYPE svg PUBLIC "-//W3C//DTD SVG 20010904//EN"
 "http://www.w3.org/TR/2001/REC-SVG-20010904/DTD/svg10.dtd">
<svg version="1.0" xmlns="http://www.w3.org/2000/svg"
 width="474.000000pt" height="474.000000pt" viewBox="0 0 474.000000 474.000000"
 preserveAspectRatio="xMidYMid meet">
<metadata>
Created by potrace 1.14, written by Peter Selinger 2001-2017
</metadata>
<g transform="translate(0.000000,474.000000) scale(0.100000,-0.100000)"
fill="#000000" stroke="none">
<path d="M674 4375 c-7 -18 2 -1410 9 -1465 3 -25 9 -65 12 -90 5 -43 20 -143
31 -203 9 -53 35 -173 50 -232 9 -33 17 -64 18 -70 32 -141 148 -449 232 -617
19 -37 34 -71 35 -75 0 -5 6 -15 13 -23 7 -8 28 -42 46 -75 56 -104 168 -269
269 -395 258 -323 611 -618 939 -785 l72 -36 143 97 c406 277 701 562 985 949
9 13 93 140 118 180 33 53 64 109 100 180 19 39 39 77 45 85 5 8 23 47 39 85
17 39 35 78 40 87 6 10 10 22 10 27 0 5 8 26 17 47 9 22 18 44 19 49 1 6 11
33 22 60 19 51 78 260 86 305 3 14 5 25 6 25 5 0 39 204 45 272 4 35 9 73 12
85 3 13 7 366 9 785 l3 761 -1710 0 c-1392 0 -1711 -2 -1715 -13z"/>
</g>
</svg>
